<svg width="92" height="54" viewBox="0 0 92 54" fill="none" xmlns="http://www.w3.org/2000/svg">
<path d="M3.75 0.59374C2.77201 0.59374 1.83408 0.873595 1.14254 1.37174C0.451003 1.86988 0.0625 2.54551 0.0625 3.24999C0.0625 3.95447 0.451003 4.6301 1.14254 5.12824C1.83408 5.62639 2.77201 5.90624 3.75 5.90624H11.9362L21.6122 33.7969C22.4346 36.1609 25.3735 37.7812 28.7549 37.7812H74.7381C78.0679 37.7812 80.8962 36.1875 81.7701 33.8766L91.3281 8.56249H83.6065L74.7344 32.4687H28.7512L19.0789 4.57812C18.6794 3.43388 17.7584 2.41932 16.4633 1.69692C15.1683 0.974512 13.5742 0.58605 11.9362 0.59374H3.75ZM70.125 37.7812C64.0591 37.7812 59.0625 41.3805 59.0625 45.75C59.0625 50.1195 64.0591 53.7187 70.125 53.7187C76.1909 53.7187 81.1875 50.1195 81.1875 45.75C81.1875 41.3805 76.1909 37.7812 70.125 37.7812ZM36.9375 37.7812C30.8716 37.7812 25.875 41.3805 25.875 45.75C25.875 50.1195 30.8716 53.7187 36.9375 53.7187C43.0034 53.7187 48 50.1195 48 45.75C48 41.3805 43.0034 37.7812 36.9375 37.7812ZM48 0.59374V13.875H36.9375L51.6875 24.5L66.4375 13.875H55.375V0.59374H48ZM36.9375 43.0937C39.0173 43.0937 40.625 44.2519 40.625 45.75C40.625 47.2481 39.0173 48.4062 36.9375 48.4062C34.8577 48.4062 33.25 47.2481 33.25 45.75C33.25 44.2519 34.8577 43.0937 36.9375 43.0937ZM70.125 43.0937C72.2048 43.0937 73.8125 44.2519 73.8125 45.75C73.8125 47.2481 72.2048 48.4062 70.125 48.4062C68.0452 48.4062 66.4375 47.2481 66.4375 45.75C66.4375 44.2519 68.0452 43.0937 70.125 43.0937Z" fill="#0B0B0B"/>
</svg>
