<svg width="236" height="119" viewBox="0 0 236 119" fill="none" xmlns="http://www.w3.org/2000/svg">
<path d="M96.0623 29.4157C97.8762 30.4419 99.3824 31.9304 100.426 33.7279C101.47 35.5255 102.013 37.5672 102 39.6429V77.8846C102 82.1319 99.6617 86.0485 95.8881 88.1118L60.2632 110.53C58.497 111.494 56.5147 112 54.4999 112C52.485 112 50.5027 111.494 48.7366 110.53L13.1117 88.1118C11.2653 87.1081 9.72398 85.6293 8.64883 83.8302C7.57369 82.0311 7.00423 79.9776 7 77.8846V39.6377C7 35.3903 9.33805 31.479 13.1117 29.4157L48.7366 8.52037C50.5549 7.52305 52.5976 7 54.674 7C56.7505 7 58.7932 7.52305 60.6115 8.52037L96.2365 29.4157H96.0623Z" stroke="#0B0B0B" stroke-width="12.5" stroke-linecap="round" stroke-linejoin="round"/>
<path d="M43.9444 59.4988H54.4999C57.2994 59.4988 59.9842 58.3925 61.9638 56.4233C63.9433 54.4542 65.0554 51.7834 65.0554 48.9986C65.0554 46.2138 63.9433 43.543 61.9638 41.5738C59.9842 39.6047 57.2994 38.4984 54.4999 38.4984H43.9444V80.4992" stroke="#0B0B0B" stroke-width="12.5" stroke-linecap="round" stroke-linejoin="round"/>
<path d="M113.728 73.656C113.728 74.68 113.141 75.192 111.968 75.192C110.752 75.192 110.144 74.68 110.144 73.656V60.408C110.144 58.6587 110.667 57.4427 111.712 56.76C112.757 56.0773 113.963 55.736 115.328 55.736H118.976C119.765 55.736 120.16 56.2373 120.16 57.24C120.203 58.2427 119.808 58.744 118.976 58.744H115.584C114.816 58.744 114.315 58.8933 114.08 59.192C113.845 59.4907 113.728 59.9067 113.728 60.44V73.656ZM133.106 55.736C133.66 55.736 134.226 55.8533 134.802 56.088C135.399 56.3227 135.975 56.6213 136.53 56.984H136.498C137.052 57.3893 137.479 57.9227 137.778 58.584C138.076 59.224 138.226 59.9707 138.226 60.824V69.912C138.226 71.6613 137.65 72.952 136.498 73.784C135.367 74.5947 134.236 75 133.106 75H127.986C127.431 75 126.866 74.904 126.29 74.712C125.714 74.52 125.148 74.2107 124.594 73.784C123.442 72.9733 122.866 71.6827 122.866 69.912V60.824C122.866 59.9707 123.015 59.224 123.314 58.584C123.612 57.9227 124.039 57.3893 124.594 56.984H124.562C125.095 56.6213 125.66 56.3227 126.258 56.088C126.855 55.8533 127.431 55.736 127.986 55.736H133.106ZM132.53 71.992C133.319 71.992 133.874 71.768 134.194 71.32C134.535 70.872 134.706 70.392 134.706 69.88V60.856C134.706 60.3227 134.535 59.8427 134.194 59.416C133.874 58.968 133.319 58.744 132.53 58.744H128.562C127.772 58.744 127.207 58.968 126.866 59.416C126.546 59.8427 126.386 60.3227 126.386 60.856V69.88C126.386 70.392 126.546 70.872 126.866 71.32C127.207 71.768 127.772 71.992 128.562 71.992H132.53ZM146.464 58.744V70.392C146.464 70.9467 146.581 71.3733 146.816 71.672C147.051 71.9707 147.552 72.12 148.32 72.12H149.152C149.984 72.12 150.379 72.6107 150.336 73.592C150.336 74.5947 149.941 75.096 149.152 75.096H148.096C147.413 75.096 146.773 75.0107 146.176 74.84C145.579 74.648 145.003 74.3813 144.448 74.04V74.072C143.403 73.3893 142.88 72.1733 142.88 70.424V58.744H141.632C140.864 58.744 140.459 58.2427 140.416 57.24C140.416 56.2373 140.821 55.736 141.632 55.736H142.88V52.312C142.88 51.288 143.488 50.776 144.704 50.776C145.877 50.776 146.464 51.288 146.464 52.312V55.736H149.12C149.952 55.736 150.347 56.2373 150.304 57.24C150.304 58.2427 149.909 58.744 149.12 58.744H146.464ZM163.356 55.736C163.91 55.736 164.476 55.8533 165.052 56.088C165.649 56.3227 166.225 56.6213 166.78 56.984H166.748C167.302 57.3893 167.729 57.9227 168.028 58.584C168.326 59.224 168.476 59.9707 168.476 60.824V69.912C168.476 71.6613 167.9 72.952 166.748 73.784C165.617 74.5947 164.486 75 163.356 75H158.236C157.681 75 157.116 74.904 156.54 74.712C155.964 74.52 155.398 74.2107 154.844 73.784C153.692 72.9733 153.116 71.6827 153.116 69.912V60.824C153.116 59.9707 153.265 59.224 153.564 58.584C153.862 57.9227 154.289 57.3893 154.844 56.984H154.812C155.345 56.6213 155.91 56.3227 156.508 56.088C157.105 55.8533 157.681 55.736 158.236 55.736H163.356ZM162.78 71.992C163.569 71.992 164.124 71.768 164.444 71.32C164.785 70.872 164.956 70.392 164.956 69.88V60.856C164.956 60.3227 164.785 59.8427 164.444 59.416C164.124 58.968 163.569 58.744 162.78 58.744H158.812C158.022 58.744 157.457 58.968 157.116 59.416C156.796 59.8427 156.636 60.3227 156.636 60.856V69.88C156.636 70.392 156.796 70.872 157.116 71.32C157.457 71.768 158.022 71.992 158.812 71.992H162.78ZM176.714 58.744V70.392C176.714 70.9467 176.831 71.3733 177.066 71.672C177.301 71.9707 177.802 72.12 178.57 72.12H179.402C180.234 72.12 180.629 72.6107 180.586 73.592C180.586 74.5947 180.191 75.096 179.402 75.096H178.346C177.663 75.096 177.023 75.0107 176.426 74.84C175.829 74.648 175.253 74.3813 174.698 74.04V74.072C173.653 73.3893 173.13 72.1733 173.13 70.424V58.744H171.882C171.114 58.744 170.709 58.2427 170.666 57.24C170.666 56.2373 171.071 55.736 171.882 55.736H173.13V52.312C173.13 51.288 173.738 50.776 174.954 50.776C176.127 50.776 176.714 51.288 176.714 52.312V55.736H179.37C180.202 55.736 180.597 56.2373 180.554 57.24C180.554 58.2427 180.159 58.744 179.37 58.744H176.714ZM184.39 79.48C183.643 79.48 183.248 78.9787 183.206 77.976C183.206 76.9733 183.6 76.472 184.39 76.472H185.798C186.544 76.472 187.035 76.248 187.27 75.8L187.718 74.616L187.878 74.104L181.638 57.752V57.784C181.467 57.272 181.499 56.8347 181.734 56.472C181.99 56.1093 182.374 55.8427 182.886 55.672C183.27 55.5653 183.579 55.512 183.814 55.512C184.432 55.512 184.816 55.8747 184.966 56.6L187.494 62.904L189.638 68.152L193.062 56.664C193.254 55.896 193.702 55.512 194.406 55.512C194.576 55.512 194.854 55.5653 195.238 55.672C195.75 55.8213 196.112 56.0667 196.326 56.408C196.56 56.7493 196.614 57.1547 196.486 57.624C195.526 60.888 194.544 64.1733 193.542 67.48C192.56 70.7867 191.59 74.0613 190.63 77.304C190.523 77.5387 190.352 77.7733 190.118 78.008C189.904 78.264 189.616 78.4987 189.254 78.712C188.891 78.9467 188.443 79.128 187.91 79.256C187.376 79.4053 186.758 79.48 186.054 79.48H184.39ZM205.674 75C204.906 75 204.5 74.4987 204.458 73.496C204.458 72.4933 204.863 71.992 205.674 71.992H208.906C209.695 71.992 210.25 71.768 210.57 71.32C210.911 70.872 211.082 70.392 211.082 69.88V60.856C211.082 60.3227 210.911 59.832 210.57 59.384C210.25 58.9147 209.684 58.7013 208.874 58.744H202.73V77.976C202.73 78.9787 202.143 79.48 200.97 79.48C199.796 79.48 199.21 78.968 199.21 77.944V57.624C199.21 56.8773 199.402 56.376 199.786 56.12C200.17 55.864 200.639 55.736 201.194 55.736H209.482C210.036 55.736 210.591 55.832 211.146 56.024C211.722 56.216 212.308 56.4827 212.906 56.824C213.418 57.1867 213.823 57.6987 214.122 58.36C214.442 59 214.602 59.7573 214.602 60.632V70.104C214.602 71.8533 214.036 73.1013 212.906 73.848C211.711 74.616 210.57 75 209.482 75H205.674ZM222.136 69.88C222.136 70.392 222.296 70.872 222.616 71.32C222.957 71.768 223.522 71.992 224.312 71.992H228.312C229.101 71.992 229.656 71.8 229.976 71.416C230.317 71.0107 230.488 70.552 230.488 70.04V69.688C230.488 68.6853 231.074 68.184 232.248 68.184C233.421 68.184 234.008 68.6853 234.008 69.688V70.072C234.008 70.968 233.858 71.704 233.56 72.28C233.282 72.856 232.856 73.3573 232.28 73.784C231.149 74.5947 230.018 75 228.888 75H223.512C222.381 75 221.282 74.5947 220.216 73.784C219.704 73.3573 219.309 72.824 219.032 72.184C218.754 71.5227 218.616 70.7653 218.616 69.912V60.792C218.616 59.064 219.149 57.784 220.216 56.952C220.749 56.568 221.293 56.2693 221.848 56.056C222.424 55.8213 222.978 55.704 223.512 55.704H228.888C229.4 55.704 229.965 55.8107 230.584 56.024C231.202 56.216 231.778 56.4827 232.312 56.824C232.824 57.1867 233.229 57.688 233.528 58.328C233.848 58.968 234.008 59.7253 234.008 60.6V64.92C234.008 65.4107 233.858 65.848 233.56 66.232C233.282 66.616 232.76 66.808 231.992 66.808H225.08C224.312 66.808 223.906 66.3067 223.864 65.304C223.864 64.3013 224.269 63.8 225.08 63.8H230.52L230.488 60.824C230.488 60.2907 230.317 59.8107 229.976 59.384C229.656 58.936 229.101 58.712 228.312 58.712H224.312C223.522 58.712 222.957 58.936 222.616 59.384C222.296 59.8107 222.136 60.2907 222.136 60.824V69.88Z" fill="#0B0B0B"/>
</svg>
